Coordinates
version=1
nRows=29
nColumns=24
inDegrees=yes

Units are S.I. units (second, meters, Newtons, ...)
Angles are in degrees.

endheader
time	pelvis_tilt	pelvis_list	pelvis_rotation	pelvis_tx	pelvis_ty	pelvis_tz	hip_flexion_r	hip_adduction_r	hip_rotation_r	knee_angle_r	ankle_angle_r	subtalar_angle_r	mtp_angle_r	hip_flexion_l	hip_adduction_l	hip_rotation_l	knee_angle_l	ankle_angle_l	subtalar_angle_l	mtp_angle_l	lumbar_extension	lumbar_bending	lumbar_rotation
      1.15800000	     -3.77099690	      0.85535432	     -3.07923077	      0.23950789	      1.07669475	      0.28774860	     18.24055888	     -5.34425878	     -7.73308117	    -68.47655544	      2.94264722	     -4.78476645	      3.35652768	     12.29479030	      1.83567779	     -0.25670044	    -17.96992054	     11.93236439	      3.33545050	      1.74523126	     -6.75527315	     -1.09964394	     -1.03032200
      1.16216667	     -3.78197901	      0.66208175	     -3.07052085	      0.24470068	      1.07791074	      0.28758017	     18.74353983	     -5.07303169	     -7.83033321	    -68.23634782	      3.22327809	     -4.42055197	      3.37922254	     11.72841942	      1.64787177	     -0.23519463	    -17.42916392	     11.91838101	      3.39672688	      1.73299103	     -6.76733762	     -0.87159101	     -1.11899905
      1.16633333	     -3.77046900	      0.47253077	     -3.05396188	      0.24988851	      1.07913317	      0.28742156	     19.20658674	     -4.80382936	     -7.93453558	    -67.93066438	      3.50632406	     -4.02616071	      3.41040491	     11.13622458	      1.46435006	     -0.21120922	    -16.88005472	     11.89585543	      3.45851549	      1.71966516	     -6.80586479	     -0.65254111	     -1.21552846
      1.17050000	     -3.76888888	      0.28657217	     -3.03024819	      0.25507525	      1.08027842	      0.28725808	     19.66856942	     -4.53681948	     -8.04570697	    -67.57065519	      3.78715554	     -3.62556833	      3.45125127	     10.55847059	      1.28442699	     -0.18604234	    -16.33492766	     11.86937026	      3.51740697	      1.70436521	     -6.83192377	     -0.43451262	     -1.31888105
      1.17466667	     -3.76722929	      0.09793180	     -2.99661723	      0.26026157	      1.08138112	      0.28708749	     20.11486640	     -4.26631594	     -8.16721983	    -67.14915828	      4.05575912	     -3.22065060	      3.49741438	      9.98534148	      1.10136981	     -0.15760462	    -15.79643768	     11.84691516	      3.58044796	      1.68988646	     -6.86030551	     -0.21129345	     -1.42065389
      1.17883333	     -3.75259314	     -0.08027343	     -2.95686660	      0.26543761	      1.08244390	      0.28692351	     20.53563679	     -4.00703459	     -8.29332420	    -66.67663185	      4.32661514	     -2.81303356	      3.55270851	      9.40048886	      0.92949624	     -0.12896440	    -15.25666014	     11.81667850	      3.63902731	      1.67371119	     -6.90441857	      0.00027066	     -1.53395162
      1.18300000	     -3.74281978	     -0.26313871	     -2.90758600	      0.27061339	      1.08344536	      0.28674870	     20.94555886	     -3.74212079	     -8.42831521	    -66.14478498	      4.57934659	     -2.42922969	      3.60942536	      8.82695835	      0.75239938	     -0.09678854	    -14.72693086	     11.79698334	      3.70255615	      1.65864465	     -6.94161424	      0.21807590	     -1.64207114
      1.18716667	     -3.73811242	     -0.44029753	     -2.85111832	      0.27578418	      1.08436511	      0.28657213	     21.34951619	     -3.48348571	     -8.57012966	    -65.56611028	      4.83257503	     -2.06308899	      3.67844267	      8.26505514	      0.58078429	     -0.06225396	    -14.20495509	     11.77175246	      3.76403356	      1.64166248	     -6.97570728	      0.43007615	     -1.76826674
      1.19133333	     -3.72993914	     -0.61141846	     -2.79047437	      0.28095001	      1.08522625	      0.28639794	     21.73724136	     -3.23103302	     -8.71584133	    -64.93680771	      5.06908007	     -1.72317700	      3.74148666	      7.70616408	      0.41483836	     -0.03419150	    -13.69443409	     11.75583927	      3.82655941	      1.62702971	     -7.01142921	      0.63701963	     -1.87501978
      1.19550000	     -3.73933334	     -0.77957457	     -2.72782482	      0.28611466	      1.08600328	      0.28624859	     22.13145021	     -2.97429471	     -8.85430218	    -64.25732941	      5.29141195	     -1.43095406	      3.79075873	      7.17368032	      0.24699539	     -0.01599794	    -13.19594726	     11.72158409	      3.89351236	      1.61567949	     -7.02826020	      0.83119010	     -1.96702203
      1.19966667	     -3.73758190	     -0.94782625	     -2.65621586	      0.29127870	      1.08671604	      0.28606620	     22.49943093	     -2.72726841	     -9.01197880	    -63.53275819	      5.50902081	     -1.16078406	      3.83477330	      6.63414151	      0.08148981	      0.00670723	    -12.70487414	     11.70802939	      3.96711037	      1.60669648	     -7.05464138	      1.04499622	     -2.06093431
      1.20383333	     -3.69933160	     -1.08287062	     -2.57442402	      0.29641566	      1.08739998	      0.28587654	     22.82224400	     -2.52572913	     -9.17604494	    -62.77922122	      5.73836212	     -0.88080140	      3.91845463	      6.05412255	     -0.04159689	      0.07419437	    -12.20428363	     11.72111878	      3.99652773	      1.59040475	     -7.13292032	      1.21512231	     -2.25057761
      1.20800000	     -3.70751386	     -1.23162238	     -2.49252830	      0.30155912	      1.08794371	      0.28570503	     23.17805597	     -2.29850277	     -9.33289982	    -61.96830153	      5.93429913	     -0.67117399	      3.98000398	      5.54148176	     -0.18755489	      0.10564022	    -11.73871013	     11.71677674	      4.04499177	      1.57848671	     -7.14949459	      1.38909701	     -2.35504004
      1.21216667	     -3.69691403	     -1.37355066	     -2.40763511	      0.30670574	      1.08845049	      0.28551939	     23.50136742	     -2.08565554	     -9.49960995	    -61.11795346	      6.12122712	     -0.49447265	      4.04810502	      5.00710670	     -0.32354795	      0.15283283	    -11.26949731	     11.72923025	      4.09229992	      1.56623365	     -7.18986580	      1.57191207	     -2.48666530
      1.21633333	     -3.72879299	     -1.50760473	     -2.32434626	      0.31185461	      1.08880317	      0.28537140	     23.85903969	     -1.87265593	     -9.65495205	    -60.22662435	      6.30791222	     -0.35656961	      4.09501982	      4.53481055	     -0.45811419	      0.17670201	    -10.83386356	     11.72601198	      4.14742523	      1.55788938	     -7.18112900	      1.73605306	     -2.57697202
      1.22050000	     -3.71665160	     -1.62460256	     -2.23259354	      0.31698639	      1.08913707	      0.28519398	     24.16007734	     -1.69077429	     -9.82156470	    -59.30538584	      6.48050176	     -0.23225485	      4.16804067	      4.01137333	     -0.56801813	      0.24121151	    -10.38673162	     11.76180626	      4.17739346	      1.54627734	     -7.22901284	      1.89069891	     -2.74058076
      1.22466667	     -3.77750233	     -1.72772354	     -2.15885245	      0.32215471	      1.08926634	      0.28506190	     24.53330685	     -1.51204996	     -9.96553469	    -58.35554533	      6.66152183	     -0.16154695	      4.19344778	      3.57412943	     -0.67157085	      0.24943193	     -9.95760845	     11.77806974	      4.25424554	      1.54252241	     -7.17343352	      2.02526404	     -2.78785289
      1.22883333	     -3.78626945	     -1.85550846	     -2.05605309	      0.32727635	      1.08943386	      0.28489089	     24.81968298	     -1.31726966	    -10.13736769	    -57.33117505	      6.81447404	     -0.07356667	      4.23355317	      3.10711827	     -0.79873943	      0.29459474	     -9.58100185	     11.81726120	      4.28287715	      1.53724455	     -7.20086755	      2.17840555	     -2.90927645
      1.23300000	     -3.82349934	     -1.94514932	     -1.96864053	      0.33241744	      1.08944536	      0.28475207	     25.13809697	     -1.16086136	    -10.28835932	    -56.29851056	      6.97412922	     -0.02454534	      4.27043754	      2.66199611	     -0.88577015	      0.33739060	     -9.18596525	     11.86325950	      4.32003465	      1.53283125	     -7.18313767	      2.29298142	     -3.02476917
      1.23716667	     -3.82965274	     -2.03542142	     -1.87329882	      0.33755273	      1.08944640	      0.28459825	     25.40472182	     -1.01098808	    -10.45244954	    -55.21995259	      7.10092387	      0.00282371	      4.33026608	      2.18349682	     -0.97070795	      0.41308312	     -8.79055072	     11.93256180	      4.31961217	      1.52636930	     -7.20689189	      2.42080028	     -3.19957660
      1.24133333	     -3.89959479	     -2.11314159	     -1.79223719	      0.34270626	      1.08925038	      0.28449561	     25.73061463	     -0.86177088	    -10.58794360	    -54.11181331	      7.26861322	      0.03229807	      4.36181182	      1.79247955	     -1.04986608	      0.43545474	     -8.43788490	     11.97809144	      4.36030973	      1.52339535	     -7.15318708	      2.51826862	     -3.26818984
      1.24550000	     -3.94494305	     -2.18443746	     -1.70208760	      0.34784869	      1.08901357	      0.28437269	     26.01510784	     -0.72880415	    -10.73608204	    -52.96573588	      7.38773427	      0.03415522	      4.42266851	      1.37357832	     -1.11844796	      0.50790045	     -8.08095019	     12.06613500	      4.36261403	      1.51902540	     -7.12987190	      2.62075497	     -3.42869399
      1.24966667	     -4.02280189	     -2.24602104	     -1.62742149	      0.35300828	      1.08865548	      0.28429029	     26.32097827	     -0.59647895	    -10.86094176	    -51.78391420	      7.54958979	      0.06012590	      4.45193157	      1.00395699	     -1.18158313	      0.52490963	     -7.75866280	     12.13703602	      4.39766018	      1.51765763	     -7.06351592	      2.69934469	     -3.48382578
      1.25383333	     -4.09948947	     -2.30552532	     -1.55070679	      0.35817259	      1.08822079	      0.28420863	     26.60886733	     -0.46852087	    -10.98585808	    -50.56299832	      7.68678058	      0.07240375	      4.47971798	      0.63723252	     -1.24271701	      0.55761193	     -7.44581558	     12.23502545	      4.42835888	      1.51726918	     -7.00176201	      2.78150233	     -3.56038528
      1.25800000	     -4.17451402	     -2.35219838	     -1.47731171	      0.36333473	      1.08772790	      0.28414313	     26.87959513	     -0.35192644	    -11.09871796	    -49.30492471	      7.81742078	      0.08921453	      4.50881562	      0.27502336	     -1.28996730	      0.59403519	     -7.14812191	     12.33952395	      4.44945548	      1.51694812	     -6.94199053	      2.84824611	     -3.64999225
      1.26216667	     -4.27953045	     -2.38406004	     -1.41401187	      0.36851777	      1.08709227	      0.28410662	     27.17188399	     -0.24618926	    -11.19563206	    -48.02258112	      7.95554919	      0.11552134	      4.53579620	     -0.05039985	     -1.32276165	      0.62414663	     -6.86423354	     12.45512572	      4.46762569	      1.51714773	     -6.84535246	      2.89648676	     -3.73036828
      1.26633333	     -4.37930492	     -2.41147439	     -1.35869094	      0.37370360	      1.08640595	      0.28409540	     27.44314808	     -0.14242328	    -11.28570757	    -46.70545862	      8.09524535	      0.15120242	      4.55703713	     -0.38045349	     -1.35189332	      0.64756853	     -6.58375425	     12.58245043	      4.48984188	      1.51780794	     -6.76375010	      2.93050836	     -3.79499229
      1.27050000	     -4.46302055	     -2.43949056	     -1.28668282	      0.37887605	      1.08570935	      0.28405811	     27.66920523	     -0.04077406	    -11.37251414	    -45.32830676	      8.18342496	      0.16916207	      4.61362555	     -0.71140297	     -1.37982074	      0.71497137	     -6.33692518	     12.71673542	      4.47334906	      1.51484528	     -6.68794591	      2.98511494	     -3.94243754
      1.27466667	     -4.57619470	     -2.45018574	     -1.24462713	      0.38407871	      1.08488374	      0.28408607	     27.91875984	      0.05624176	    -11.42577651	    -43.93599381	      8.33520834	      0.24963139	      4.63761901	     -1.00852501	     -1.39224020	      0.72063154	     -6.10201539	     12.84817682	      4.48638614	      1.51447813	     -6.58548092	      3.00321310	     -3.97291764
